<svg width="939" height="939" viewBox="0 0 939 939" fill="none" xmlns="http://www.w3.org/2000/svg">
<g clip-path="url(#clip0_17_3)">
<rect width="939" height="939" rx="200" fill="#281535"/>
<g filter="url(#filter0_d_17_3)">
<path d="M127 443.105C133.175 453.458 139.374 462.806 146.283 472.409C262.027 658.119 542.316 613.961 593.891 457.303L638.082 471.214L667.09 549.515L671.235 560.706C512.6 736.25 205.882 667.069 140.452 475.818C135.384 464.903 131.143 454.425 127 443.105ZM653.357 455.161L685.749 542.6V542.602L653.356 455.161L599.557 438.225L653.357 455.161Z" fill="url(#paint0_linear_17_3)"/>
</g>
<path d="M685.75 310L715.443 399.929L813 427.301L715.443 454.672L685.75 544.602L656.056 454.672L558.499 427.301L656.056 399.929L685.75 310Z" fill="white"/>
</g>
<defs>
<filter id="filter0_d_17_3" x="-122" y="192.225" width="1058.75" height="723.517" filterUnits="userSpaceOnUse" color-interpolation-filters="sRGB">
<feFlood flood-opacity="0" result="BackgroundImageFix"/>
<feColorMatrix in="SourceAlpha" type="matrix" values="0 0 0 0 0 0 0 0 0 0 0 0 0 0 0 0 0 0 127 0" result="hardAlpha"/>
<feOffset dx="1" dy="4"/>
<feGaussianBlur stdDeviation="125"/>
<feComposite in2="hardAlpha" operator="out"/>
<feColorMatrix type="matrix" values="0 0 0 0 0.345098 0 0 0 0 0.996078 0 0 0 0 0.811765 0 0 0 1 0"/>
<feBlend mode="normal" in2="BackgroundImageFix" result="effect1_dropShadow_17_3"/>
<feBlend mode="normal" in="SourceGraphic" in2="effect1_dropShadow_17_3" result="shape"/>
</filter>
<linearGradient id="paint0_linear_17_3" x1="127" y1="473.478" x2="685.75" y2="537.365" gradientUnits="userSpaceOnUse">
<stop stop-color="#00FFA2"/>
<stop offset="1" stop-color="#B5FDFF"/>
</linearGradient>
<clipPath id="clip0_17_3">
<rect width="939" height="939" rx="200" fill="white"/>
</clipPath>
</defs>
</svg>
